# Blender 4.0.2
# www.blender.org
mtllib shapes.mtl
o Cube
v 0.619018 -0.507784 0.419252
v 0.003986 1.294082 1.031635
v 1.162024 0.275184 -1.339186
v 0.546993 2.077050 -0.726803
v 2.442991 -0.133301 1.149240
v 1.827960 1.668566 1.761623
v 2.985998 0.649667 -0.609198
v 2.370966 2.451534 0.003185
vn -0.9120 -0.1872 -0.3650
vn 0.2715 0.3915 -0.8792
vn 0.9120 0.1872 0.3650
vn -0.2715 -0.3915 0.8792
vn 0.3075 -0.9009 -0.3062
vn -0.3075 0.9009 0.3062
vt 0.375000 0.000000
vt 0.625000 0.000000
vt 0.625000 0.250000
vt 0.375000 0.250000
vt 0.625000 0.500000
vt 0.375000 0.500000
vt 0.625000 0.750000
vt 0.375000 0.750000
vt 0.625000 1.000000
vt 0.375000 1.000000
vt 0.125000 0.500000
vt 0.125000 0.750000
vt 0.875000 0.500000
vt 0.875000 0.750000
s 0
usemtl Material
f 1/1/1 2/2/1 4/3/1 3/4/1
f 3/4/2 4/3/2 8/5/2 7/6/2
f 7/6/3 8/5/3 6/7/3 5/8/3
f 5/8/4 6/7/4 2/9/4 1/10/4
f 3/11/5 7/6/5 5/8/5 1/12/5
f 8/5/6 4/13/6 2/14/6 6/7/6
o Icosphere
v -1.426130 0.527712 -1.141194
v -0.702523 1.080493 -0.615469
v -1.702518 1.080492 -0.290545
v -2.320556 1.080497 -1.141194
v -1.702518 1.080492 -1.991843
v -0.702523 1.080493 -1.666919
v -1.149742 1.974932 -0.290545
v -2.149737 1.974932 -0.615469
v -2.149737 1.974932 -1.666919
v -1.149742 1.974932 -1.991843
v -0.531704 1.974928 -1.141194
v -1.426130 2.527712 -1.141194
v -1.588585 0.677058 -0.641199
v -1.000807 0.677058 -0.832183
v -1.163261 1.001975 -0.332182
v -0.575482 1.001976 -1.141194
v -1.000807 0.677058 -1.450206
v -1.951860 0.677061 -1.141194
v -2.114319 1.001976 -0.641197
v -1.588585 0.677058 -1.641189
v -2.114319 1.001976 -1.641191
v -1.163261 1.001975 -1.950206
v -0.475072 1.527712 -0.832181
v -0.475072 1.527712 -1.450207
v -1.426130 1.527712 -0.141194
v -0.838344 1.527712 -0.332177
v -2.377188 1.527712 -0.832181
v -2.013916 1.527712 -0.332177
v -2.013916 1.527712 -1.950211
v -2.377188 1.527712 -1.450207
v -0.838344 1.527712 -1.950211
v -1.426130 1.527712 -2.141194
v -0.737940 2.053449 -0.641197
v -1.688999 2.053450 -0.332182
v -2.276778 2.053448 -1.141194
v -1.688999 2.053450 -1.950206
v -0.737940 2.053449 -1.641191
v -1.263674 2.378367 -0.641199
v -0.900400 2.378364 -1.141194
v -1.851452 2.378366 -0.832183
v -1.851452 2.378366 -1.450206
v -1.263674 2.378367 -1.641189
vn 0.1024 -0.9435 0.3151
vn 0.7002 -0.6617 0.2680
vn -0.2680 -0.9435 0.1947
vn -0.2680 -0.9435 -0.1947
vn 0.1024 -0.9435 -0.3151
vn 0.9050 -0.3304 0.2680
vn 0.0247 -0.3304 0.9435
vn -0.8897 -0.3304 0.3151
vn -0.5746 -0.3304 -0.7488
vn 0.5346 -0.3304 -0.7779
vn 0.8026 -0.1256 0.5831
vn -0.3066 -0.1256 0.9435
vn -0.9921 -0.1256 -0.0000
vn -0.3066 -0.1256 -0.9435
vn 0.8026 -0.1256 -0.5831
vn 0.4089 0.6617 0.6284
vn -0.4713 0.6617 0.5831
vn -0.7002 0.6617 -0.2680
vn 0.0385 0.6617 -0.7488
vn 0.7240 0.6617 -0.1947
vn 0.2680 0.9435 -0.1947
vn 0.4911 0.7947 -0.3568
vn 0.4089 0.6617 -0.6284
vn -0.1024 0.9435 -0.3151
vn -0.1876 0.7947 -0.5773
vn -0.4713 0.6617 -0.5831
vn -0.3313 0.9435 -0.0000
vn -0.6071 0.7947 -0.0000
vn -0.7002 0.6617 0.2680
vn -0.1024 0.9435 0.3151
vn -0.1876 0.7947 0.5773
vn 0.0385 0.6617 0.7488
vn 0.2680 0.9435 0.1947
vn 0.4911 0.7947 0.3568
vn 0.7240 0.6617 0.1947
vn 0.8897 0.3304 -0.3151
vn 0.7947 0.1876 -0.5773
vn 0.5746 0.3304 -0.7488
vn -0.0247 0.3304 -0.9435
vn -0.3035 0.1876 -0.9342
vn -0.5346 0.3304 -0.7779
vn -0.9050 0.3304 -0.2680
vn -0.9822 0.1876 -0.0000
vn -0.9050 0.3304 0.2680
vn -0.5346 0.3304 0.7779
vn -0.3035 0.1876 0.9342
vn -0.0247 0.3304 0.9435
vn 0.5746 0.3304 0.7488
vn 0.7947 0.1876 0.5773
vn 0.8897 0.3304 0.3151
vn 0.3066 0.1256 -0.9435
vn 0.3035 -0.1876 -0.9342
vn 0.0247 -0.3304 -0.9435
vn -0.8026 0.1256 -0.5831
vn -0.7947 -0.1876 -0.5773
vn -0.8897 -0.3304 -0.3151
vn -0.8026 0.1256 0.5831
vn -0.7947 -0.1876 0.5773
vn -0.5746 -0.3304 0.7488
vn 0.3066 0.1256 0.9435
vn 0.3035 -0.1876 0.9342
vn 0.5346 -0.3304 0.7779
vn 0.9921 0.1256 -0.0000
vn 0.9822 -0.1876 -0.0000
vn 0.9050 -0.3304 -0.2680
vn 0.4713 -0.6617 -0.5831
vn 0.1876 -0.7947 -0.5773
vn -0.0385 -0.6617 -0.7488
vn -0.4089 -0.6617 -0.6284
vn -0.4911 -0.7947 -0.3568
vn -0.7240 -0.6617 -0.1947
vn -0.7240 -0.6617 0.1947
vn -0.4911 -0.7947 0.3568
vn -0.4089 -0.6617 0.6284
vn 0.7002 -0.6617 -0.2680
vn 0.6071 -0.7947 -0.0000
vn 0.3313 -0.9435 -0.0000
vn -0.0385 -0.6617 0.7488
vn 0.1876 -0.7947 0.5773
vn 0.4713 -0.6617 0.5831
vt 0.181819 0.000000
vt 0.227273 0.078731
vt 0.136365 0.078731
vt 0.272728 0.157461
vt 0.318182 0.078731
vt 0.363637 0.157461
vt 0.909091 0.000000
vt 0.954545 0.078731
vt 0.863636 0.078731
vt 0.727273 0.000000
vt 0.772727 0.078731
vt 0.681818 0.078731
vt 0.545455 0.000000
vt 0.590909 0.078731
vt 0.500000 0.078731
vt 0.318182 0.236191
vt 0.090910 0.157461
vt 0.181819 0.157461
vt 0.136365 0.236191
vt 0.818182 0.157461
vt 0.909091 0.157461
vt 0.863636 0.236191
vt 0.636364 0.157461
vt 0.727273 0.157461
vt 0.681818 0.236191
vt 0.454546 0.157461
vt 0.545455 0.157461
vt 0.500000 0.236191
vt 0.227273 0.236191
vt 0.045455 0.236191
vt 0.772727 0.236191
vt 0.590909 0.236191
vt 0.409092 0.236191
vt 0.181819 0.314921
vt 0.272728 0.314921
vt 0.227273 0.393651
vt 0.000000 0.314921
vt 0.090910 0.314921
vt 0.045455 0.393651
vt 0.727273 0.314921
vt 0.818182 0.314921
vt 0.772727 0.393651
vt 0.545455 0.314921
vt 0.636364 0.314921
vt 0.590909 0.393651
vt 0.363637 0.314921
vt 0.454546 0.314921
vt 0.409092 0.393651
vt 0.500000 0.393651
vt 0.454546 0.472382
vt 0.681818 0.393651
vt 0.636364 0.472382
vt 0.863636 0.393651
vt 0.818182 0.472382
vt 0.909091 0.314921
vt 0.136365 0.393651
vt 0.090910 0.472382
vt 0.318182 0.393651
vt 0.272728 0.472382
vt 0.954545 0.236191
vt 1.000000 0.157461
vt 0.409092 0.078731
vt 0.363637 0.000000
s 0
usemtl Material.001
f 9/15/7 22/16/7 21/17/7
f 10/18/8 22/19/8 24/20/8
f 9/21/9 21/22/9 26/23/9
f 9/24/10 26/25/10 28/26/10
f 9/27/11 28/28/11 25/29/11
f 10/18/12 24/20/12 31/30/12
f 11/31/13 23/32/13 33/33/13
f 12/34/14 27/35/14 35/36/14
f 13/37/15 29/38/15 37/39/15
f 14/40/16 30/41/16 39/42/16
f 10/18/17 31/30/17 34/43/17
f 11/31/18 33/33/18 36/44/18
f 12/34/19 35/36/19 38/45/19
f 13/37/20 37/39/20 40/46/20
f 14/40/21 39/42/21 32/47/21
f 15/48/22 41/49/22 46/50/22
f 16/51/23 42/52/23 48/53/23
f 17/54/24 43/55/24 49/56/24
f 18/57/25 44/58/25 50/59/25
f 19/60/26 45/61/26 47/62/26
f 47/62/27 50/63/27 20/64/27
f 47/62/28 45/61/28 50/63/28
f 45/61/29 18/57/29 50/63/29
f 50/59/30 49/65/30 20/66/30
f 50/59/31 44/58/31 49/65/31
f 44/58/32 17/54/32 49/65/32
f 49/56/33 48/67/33 20/68/33
f 49/56/34 43/55/34 48/67/34
f 43/55/35 16/69/35 48/67/35
f 48/53/36 46/70/36 20/71/36
f 48/53/37 42/52/37 46/70/37
f 42/52/38 15/48/38 46/70/38
f 46/50/39 47/72/39 20/73/39
f 46/50/40 41/49/40 47/72/40
f 41/49/41 19/60/41 47/72/41
f 32/47/42 45/61/42 19/60/42
f 32/47/43 39/42/43 45/61/43
f 39/42/44 18/57/44 45/61/44
f 40/46/45 44/58/45 18/57/45
f 40/46/46 37/39/46 44/58/46
f 37/39/47 17/54/47 44/58/47
f 38/45/48 43/55/48 17/54/48
f 38/45/49 35/36/49 43/55/49
f 35/36/50 16/69/50 43/55/50
f 36/44/51 42/52/51 16/51/51
f 36/44/52 33/33/52 42/52/52
f 33/33/53 15/48/53 42/52/53
f 34/43/54 41/49/54 15/48/54
f 34/43/55 31/30/55 41/49/55
f 31/30/56 19/60/56 41/49/56
f 39/42/57 40/46/57 18/57/57
f 39/42/58 30/41/58 40/46/58
f 30/41/59 13/37/59 40/46/59
f 37/39/60 38/45/60 17/54/60
f 37/39/61 29/38/61 38/45/61
f 29/38/62 12/34/62 38/45/62
f 35/36/63 36/74/63 16/69/63
f 35/36/64 27/35/64 36/74/64
f 27/35/65 11/75/65 36/74/65
f 33/33/66 34/43/66 15/48/66
f 33/33/67 23/32/67 34/43/67
f 23/32/68 10/18/68 34/43/68
f 31/30/69 32/47/69 19/60/69
f 31/30/70 24/20/70 32/47/70
f 24/20/71 14/40/71 32/47/71
f 25/29/72 30/41/72 14/40/72
f 25/29/73 28/28/73 30/41/73
f 28/28/74 13/37/74 30/41/74
f 28/26/75 29/38/75 13/37/75
f 28/26/76 26/25/76 29/38/76
f 26/25/77 12/34/77 29/38/77
f 26/23/78 27/35/78 12/34/78
f 26/23/79 21/22/79 27/35/79
f 21/22/80 11/75/80 27/35/80
f 24/20/81 25/76/81 14/40/81
f 24/20/82 22/19/82 25/76/82
f 22/19/83 9/77/83 25/76/83
f 21/17/84 23/32/84 11/31/84
f 21/17/85 22/16/85 23/32/85
f 22/16/86 10/18/86 23/32/86
o Cone
v -1.729538 -0.655284 -1.030797
v -1.572708 -0.660383 -1.148304
v -1.399090 -0.683544 -1.236337
v -1.215355 -0.723877 -1.291512
v -1.028565 -0.779831 -1.311710
v -0.845897 -0.849257 -1.296153
v -0.674372 -0.929487 -1.245441
v -0.520581 -1.017437 -1.161521
v -0.390434 -1.109727 -1.047619
v -0.288933 -1.202811 -0.908112
v -0.219977 -1.293112 -0.748360
v -0.186219 -1.377159 -0.574505
v -0.188953 -1.451723 -0.393225
v -0.228076 -1.513938 -0.211489
v -0.302084 -1.561413 -0.036279
v -0.408133 -1.592324 0.125670
v -0.542147 -1.605482 0.268136
v -0.698977 -1.600383 0.385643
v -0.872595 -1.577222 0.473676
v -1.056329 -1.536889 0.528851
v -1.243120 -1.480935 0.549048
v -1.425787 -1.411509 0.533492
v -1.597312 -1.331279 0.482779
v -1.751104 -1.243329 0.398860
v -1.881251 -1.151039 0.284958
v -1.982752 -1.057955 0.145450
v -2.051707 -0.967654 -0.014301
v -2.085466 -0.883607 -0.188157
v -2.082731 -0.809043 -0.369436
v -2.043609 -0.746828 -0.551172
v -1.969601 -0.699353 -0.726382
v -1.863552 -0.668442 -0.888331
v -0.529567 0.628997 0.351481
vn -0.3285 0.8170 -0.4739
vn -0.1799 0.8043 -0.5664
vn -0.0191 0.7757 -0.6308
vn 0.1475 0.7324 -0.6647
vn 0.3137 0.6760 -0.6668
vn 0.4730 0.6087 -0.6370
vn 0.6194 0.5331 -0.5764
vn 0.7471 0.4520 -0.4874
vn 0.8513 0.3686 -0.3734
vn 0.9280 0.2861 -0.2388
vn 0.9742 0.2077 -0.0888
vn 0.9881 0.1363 0.0710
vn 0.9693 0.0748 0.2343
vn 0.9184 0.0255 0.3948
vn 0.8374 -0.0098 0.5465
vn 0.7294 -0.0296 0.6834
vn 0.5986 -0.0332 0.8004
vn 0.4500 -0.0205 0.8928
vn 0.2892 0.0080 0.9572
vn 0.1226 0.0514 0.9911
vn -0.0436 0.1078 0.9932
vn -0.2029 0.1751 0.9634
vn -0.3493 0.2507 0.9029
vn -0.4770 0.3318 0.8139
vn -0.5812 0.4152 0.6999
vn -0.6579 0.4977 0.5653
vn -0.7041 0.5761 0.4152
vn -0.7180 0.6474 0.2555
vn -0.6992 0.7090 0.0922
vn -0.6483 0.7583 -0.0684
vn -0.3031 -0.8797 -0.3664
vn -0.5673 0.7936 -0.2200
vn -0.4593 0.8134 -0.3570
vt 0.250000 0.490000
vt 0.250000 0.250000
vt 0.296822 0.485388
vt 0.341844 0.471731
vt 0.383337 0.449553
vt 0.419706 0.419706
vt 0.449553 0.383337
vt 0.471731 0.341844
vt 0.485388 0.296822
vt 0.490000 0.250000
vt 0.485388 0.203178
vt 0.471731 0.158156
vt 0.449553 0.116663
vt 0.419706 0.080294
vt 0.383337 0.050447
vt 0.341844 0.028269
vt 0.296822 0.014612
vt 0.250000 0.010000
vt 0.203178 0.014612
vt 0.158156 0.028269
vt 0.116663 0.050447
vt 0.080294 0.080294
vt 0.050447 0.116663
vt 0.028269 0.158156
vt 0.014612 0.203178
vt 0.010000 0.250000
vt 0.014612 0.296822
vt 0.028269 0.341844
vt 0.050447 0.383337
vt 0.080294 0.419706
vt 0.116663 0.449553
vt 0.158156 0.471731
vt 0.750000 0.490000
vt 0.796822 0.485388
vt 0.841844 0.471731
vt 0.883337 0.449553
vt 0.919706 0.419706
vt 0.949553 0.383337
vt 0.971731 0.341844
vt 0.985388 0.296822
vt 0.990000 0.250000
vt 0.985388 0.203178
vt 0.971731 0.158156
vt 0.949553 0.116663
vt 0.919706 0.080294
vt 0.883337 0.050447
vt 0.841844 0.028269
vt 0.796822 0.014612
vt 0.750000 0.010000
vt 0.703178 0.014612
vt 0.658156 0.028269
vt 0.616663 0.050447
vt 0.580294 0.080294
vt 0.550447 0.116663
vt 0.528269 0.158156
vt 0.514612 0.203178
vt 0.510000 0.250000
vt 0.514612 0.296822
vt 0.528269 0.341844
vt 0.550447 0.383337
vt 0.580294 0.419706
vt 0.616663 0.449553
vt 0.658156 0.471731
vt 0.703178 0.485388
vt 0.203178 0.485388
s 0
usemtl Material.002
f 51/78/87 83/79/87 52/80/87
f 52/80/88 83/79/88 53/81/88
f 53/81/89 83/79/89 54/82/89
f 54/82/90 83/79/90 55/83/90
f 55/83/91 83/79/91 56/84/91
f 56/84/92 83/79/92 57/85/92
f 57/85/93 83/79/93 58/86/93
f 58/86/94 83/79/94 59/87/94
f 59/87/95 83/79/95 60/88/95
f 60/88/96 83/79/96 61/89/96
f 61/89/97 83/79/97 62/90/97
f 62/90/98 83/79/98 63/91/98
f 63/91/99 83/79/99 64/92/99
f 64/92/100 83/79/100 65/93/100
f 65/93/101 83/79/101 66/94/101
f 66/94/102 83/79/102 67/95/102
f 67/95/103 83/79/103 68/96/103
f 68/96/104 83/79/104 69/97/104
f 69/97/105 83/79/105 70/98/105
f 70/98/106 83/79/106 71/99/106
f 71/99/107 83/79/107 72/100/107
f 72/100/108 83/79/108 73/101/108
f 73/101/109 83/79/109 74/102/109
f 74/102/110 83/79/110 75/103/110
f 75/103/111 83/79/111 76/104/111
f 76/104/112 83/79/112 77/105/112
f 77/105/113 83/79/113 78/106/113
f 78/106/114 83/79/114 79/107/114
f 79/107/115 83/79/115 80/108/115
f 80/108/116 83/79/116 81/109/116
f 51/110/117 52/111/117 53/112/117 54/113/117 55/114/117 56/115/117 57/116/117 58/117/117 59/118/117 60/119/117 61/120/117 62/121/117 63/122/117 64/123/117 65/124/117 66/125/117 67/126/117 68/127/117 69/128/117 70/129/117 71/130/117 72/131/117 73/132/117 74/133/117 75/134/117 76/135/117 77/136/117 78/137/117 79/138/117 80/139/117 81/140/117 82/141/117
f 81/109/118 83/79/118 82/142/118
f 82/142/119 83/79/119 51/78/119
